<?xml version="1.0" encoding="UTF-8" ?>
<!DOCTYPE svg PUBLIC "-//W3C//DTD SVG 1.1//EN" "http://www.w3.org/Graphics/SVG/1.1/DTD/svg11.dtd">
<svg width="1772pt" height="474pt" transform="scale(3 3)" version="1" xmlns="http://www.w3.org/2000/svg" xmlns:xlink="http://www.w3.org/1999/xlink" style="background: #FFF">

<g id="alphabet_A" transform="translate(10 10)">
	<rect width="30" height="40" style="fill:#AAA;" />
	<path d="M 0 40   L 15 0   L 30 40   M 5.625 25   L 24.375 25 " stroke="black" stroke-linejoin="bevel" stroke-width="3" fill="none" />
</g>

<g id="alphabet_B" transform="translate(50 10)">
	<rect width="27" height="40" style="fill:#AAA;" />
	<path d="M 0 0   L 0 40   M 0 0   L 15 0   A 9 9 0 0 1 15 18   L 0 18   M 16 18   A 11 11 0 0 1 16 40   L 0 40 " stroke="black" stroke-linejoin="bevel" stroke-width="3" fill="none" />
</g>

<g id="alphabet_C" transform="translate(90 10)">
	<rect width="28" height="40" style="fill:#AAA;" />
	<path d="M 28 8  A 15 20 0 1 0 28 32" stroke="black" stroke-linejoin="bevel" stroke-width="3" fill="none" />
</g>

<g id="alphabet_D" transform="translate(130 10)">
	<rect width="29" height="40" style="fill:#AAA;" />
	<path d="M 0 0  L 0 40   M 0 0   L 15 0   A 14 20 0 0 1 14 40  L 0 40" stroke="black" stroke-linejoin="bevel" stroke-width="3" fill="none" />
</g>

<g id="alphabet_E" transform="translate(170 10)">
	<rect width="22" height="40" style="fill:#AAA;" />
	<path d="M 0 0  L 0 40   M 0 0   L 22 0   M 0 20   L 18 20   M 0 40   L 22 40" stroke="black" stroke-linejoin="bevel" stroke-width="3" fill="none" />
</g>

<g id="alphabet_E" transform="translate(200 10)">
	<rect width="22" height="40" style="fill:#AAA;" />
	<path d="M 0 0  L 0 40   M 0 0   L 22 0   M 0 20   L 18 20" stroke="black" stroke-linejoin="bevel" stroke-width="3" fill="none" />
</g>

</svg>
